<svg width="184" height="51" viewBox="0 0 184 51" fill="none" xmlns="http://www.w3.org/2000/svg">
<path d="M0.0560303 6.68802C0.0560303 5.58345 0.951461 4.68802 2.05603 4.68802H17.72C19.4267 4.68802 21.112 4.90136 22.776 5.32802C24.44 5.71202 25.912 6.37335 27.192 7.31202C28.5147 8.20802 29.5814 9.38135 30.392 10.832C31.2027 12.2827 31.608 14.032 31.608 16.08C31.608 18.64 30.8827 20.752 29.432 22.416C27.9929 24.0668 26.1127 25.2557 23.7917 25.9827C23.7587 25.993 23.736 26.0236 23.736 26.0582V26.0582C23.736 26.098 23.7659 26.1316 23.8054 26.1366C25.1868 26.3121 26.465 26.7145 27.64 27.344C28.8774 27.9414 29.9227 28.7307 30.776 29.712C31.6294 30.6507 32.2907 31.76 32.76 33.04C33.272 34.2774 33.528 35.6214 33.528 37.072C33.528 39.5467 33.0374 41.616 32.056 43.28C31.0747 44.9014 29.7734 46.224 28.152 47.248C26.5734 48.2294 24.7387 48.9334 22.648 49.36C20.6 49.7867 18.5094 50 16.376 50H2.05603C0.95146 50 0.0560303 49.1046 0.0560303 48V6.68802ZM8.12003 21.12C8.12003 22.2246 9.01546 23.12 10.12 23.12H15.48C18.168 23.12 20.1734 22.608 21.496 21.584C22.8614 20.5174 23.544 19.1307 23.544 17.424C23.544 15.4614 22.84 14.0107 21.432 13.072C20.0667 12.0907 17.848 11.6 14.776 11.6H10.12C9.01546 11.6 8.12003 12.4955 8.12003 13.6V21.12ZM8.12003 41.088C8.12003 42.1926 9.01546 43.088 10.12 43.088H15.544C16.568 43.088 17.656 43.024 18.808 42.896C20.0027 42.768 21.0907 42.4694 22.072 42C23.0534 41.5307 23.864 40.8694 24.504 40.016C25.144 39.12 25.464 37.9254 25.464 36.432C25.464 34.0427 24.6747 32.3787 23.096 31.44C21.56 30.5014 19.1494 30.032 15.864 30.032H10.12C9.01546 30.032 8.12003 30.9275 8.12003 32.032V41.088Z" fill="#E64203"/>
<path d="M34.852 21.28C34.852 20.1755 35.7475 19.28 36.852 19.28H40.532C41.6366 19.28 42.532 20.1755 42.532 21.28V24.0656C42.532 24.1089 42.5672 24.144 42.6105 24.144V24.144C42.6408 24.144 42.6683 24.1265 42.6815 24.0992C43.5337 22.3289 44.7425 20.9572 46.308 19.984C47.8867 19.0027 49.7 18.512 51.748 18.512C52.2174 18.512 52.6654 18.5547 53.092 18.64V18.64C53.931 18.7926 54.5 19.5516 54.5 20.4044V24.4247C54.5 25.4137 53.5604 26.1307 52.58 26V26C51.9827 25.872 51.3854 25.808 50.788 25.808C48.996 25.808 47.5454 26.1494 46.436 26.832C45.3694 27.472 44.5374 28.2187 43.94 29.072C43.3854 29.9254 43.0014 30.7787 42.788 31.632C42.6174 32.4854 42.532 33.1254 42.532 33.552V48C42.532 49.1046 41.6366 50 40.532 50H36.852C35.7475 50 34.852 49.1046 34.852 48V21.28Z" fill="#E64203"/>
<path d="M55.855 21.28C55.855 20.1755 56.7505 19.28 57.855 19.28H61.535C62.6396 19.28 63.535 20.1755 63.535 21.28V48C63.535 49.1046 62.6396 50 61.535 50H57.855C56.7505 50 55.855 49.1046 55.855 48V21.28ZM54.767 8.84802C54.767 7.61069 55.215 6.54402 56.111 5.64802C57.0497 4.70935 58.223 4.24002 59.631 4.24002C61.039 4.24002 62.2124 4.68802 63.151 5.58402C64.1324 6.43736 64.623 7.52535 64.623 8.84802C64.623 10.1707 64.1324 11.28 63.151 12.176C62.2124 13.0294 61.039 13.456 59.631 13.456C58.223 13.456 57.0497 13.008 56.111 12.112C55.215 11.1734 54.767 10.0854 54.767 8.84802Z" fill="#E64203"/>
<path d="M75.7306 37.328C74.5385 37.328 73.5827 38.3808 73.9805 39.5045C74.4368 40.7936 75.1713 41.8601 76.184 42.704C77.72 43.984 79.576 44.624 81.752 44.624C83.672 44.624 85.272 44.24 86.552 43.472C87.2653 43.0348 87.929 42.5418 88.543 41.9929C89.4006 41.2264 90.7202 41.1218 91.5651 41.9022L93.1371 43.3541C93.9108 44.0687 94.0047 45.267 93.3471 46.0896C92.1772 47.553 91.1905 48.6432 89.496 49.36C87.2774 50.2987 84.952 50.768 82.52 50.768C80.216 50.768 78.04 50.384 75.992 49.616C73.944 48.848 72.1734 47.76 70.68 46.352C69.1867 44.944 67.992 43.2587 67.096 41.296C66.2427 39.2907 66 36.932 66 34.5C66 32.068 66.2427 30.0107 67.096 28.048C67.992 26.0427 69.1867 24.336 70.68 22.928C72.1734 21.52 73.944 20.432 75.992 19.664C78.04 18.896 80.216 18.512 82.52 18.512C84.6534 18.512 86.5947 18.896 88.344 19.664C90.136 20.3894 91.6507 21.456 92.888 22.864C94.168 24.272 95.1494 26.0214 95.832 28.112C96.5166 30.045 96.8782 32.2631 96.9166 34.7663C96.9211 35.0623 96.8543 35.3548 96.7276 35.6223L96.4618 36.1839C96.131 36.8826 95.4271 37.328 94.6541 37.328H75.7306ZM87.2019 31.568C88.3213 31.568 89.2564 30.637 88.996 29.5484C88.6792 28.224 88.0566 27.1265 87.128 26.256C85.7627 24.9334 83.864 24.272 81.432 24.272C79.128 24.272 77.2934 24.9334 75.928 26.256C75.0818 27.1023 74.4451 28.1319 74.018 29.345C73.616 30.4869 74.5727 31.568 75.7833 31.568H87.2019Z" fill="#E64203"/>
<path d="M101.854 27.808C101.854 26.7035 100.959 25.808 99.854 25.808H97.518C96.4135 25.808 95.518 24.9126 95.518 23.808V21.28C95.518 20.1755 96.4135 19.28 97.518 19.28H99.854C100.959 19.28 101.854 18.3846 101.854 17.28V14.928C101.854 12.7947 102.003 10.8747 102.302 9.16802C102.601 7.41869 103.155 5.92536 103.966 4.68802C104.819 3.45069 105.993 2.51202 107.486 1.87202C108.979 1.18936 110.921 0.848022 113.31 0.848022C114.396 0.848022 115.433 0.905618 116.421 1.02081C117.427 1.13812 118.114 2.05594 118.035 3.06548L117.79 6.19707C117.722 7.05377 116.91 7.64529 116.062 7.50402V7.50402C115.55 7.41869 115.017 7.37602 114.462 7.37602C113.395 7.37602 112.542 7.54669 111.902 7.88802C111.262 8.22935 110.75 8.69869 110.366 9.29602C110.025 9.85069 109.79 10.512 109.662 11.28C109.577 12.048 109.534 12.8587 109.534 13.712V17.28C109.534 18.3846 110.429 19.28 111.534 19.28H114.638C115.743 19.28 116.638 20.1755 116.638 21.28V23.808C116.638 24.9126 115.743 25.808 114.638 25.808H111.534C110.429 25.808 109.534 26.7035 109.534 27.808V48C109.534 49.1046 108.639 50 107.534 50H103.854C102.749 50 101.854 49.1046 101.854 48V27.808Z" fill="#E64203"/>
<path d="M126.981 37.328C125.789 37.328 124.833 38.3808 125.231 39.5045C125.687 40.7936 126.421 41.8601 127.434 42.704C128.97 43.984 130.826 44.624 133.002 44.624C134.922 44.624 136.522 44.24 137.802 43.472C138.573 42.9996 139.286 42.4621 139.94 41.8593C140.73 41.1325 141.934 40.9751 142.79 41.6221L145.114 43.3786C146.016 44.0599 146.183 45.3624 145.384 46.1617C143.959 47.5889 142.412 48.655 140.746 49.36C138.527 50.2987 136.202 50.768 133.77 50.768C131.466 50.768 129.29 50.384 127.242 49.616C125.194 48.848 123.423 47.76 121.93 46.352C120.437 44.944 119.242 43.2587 118.346 41.296C117.493 39.2907 117.066 37.072 117.066 34.64C117.066 32.208 117.493 30.0107 118.346 28.048C119.242 26.0427 120.437 24.336 121.93 22.928C123.423 21.52 125.194 20.432 127.242 19.664C129.29 18.896 131.466 18.512 133.77 18.512C135.903 18.512 137.845 18.896 139.594 19.664C141.386 20.3894 142.901 21.456 144.138 22.864C145.418 24.272 146.399 26.0214 147.082 28.112C147.807 30.16 148.17 32.528 148.17 35.216V35.328C148.17 36.4326 147.275 37.328 146.17 37.328H126.981ZM138.452 31.568C139.571 31.568 140.506 30.637 140.246 29.5484C139.929 28.224 139.307 27.1265 138.378 26.256C137.013 24.9334 135.114 24.272 132.682 24.272C130.378 24.272 128.543 24.9334 127.178 26.256C126.332 27.1023 125.695 28.1319 125.268 29.345C124.866 30.4869 125.823 31.568 127.033 31.568H138.452Z" fill="#E64203"/>
<path d="M176.672 45.4735C176.672 45.4285 176.636 45.392 176.591 45.392V45.392C176.562 45.392 176.535 45.4074 176.52 45.4321C175.413 47.2888 173.928 48.6408 172.064 49.488C170.187 50.3414 168.16 50.768 165.984 50.768C163.595 50.768 161.461 50.3627 159.584 49.552C157.749 48.6987 156.171 47.5467 154.848 46.096C153.525 44.6454 152.523 42.9387 151.84 40.976C151.157 39.0134 150.816 36.9014 150.816 34.64C150.816 32.3787 151.179 30.2667 151.904 28.304C152.629 26.3414 153.632 24.6347 154.912 23.184C156.235 21.7334 157.813 20.6027 159.648 19.792C161.483 18.9387 163.488 18.512 165.664 18.512C167.115 18.512 168.395 18.6614 169.504 18.96C170.613 19.2587 171.595 19.6427 172.448 20.112C173.301 20.5814 174.027 21.0934 174.624 21.648C175.202 22.143 175.679 22.638 176.057 23.133C176.082 23.165 176.12 23.184 176.16 23.184V23.184C176.231 23.184 176.288 23.1267 176.288 23.056V3.61602C176.288 2.51145 177.183 1.61602 178.288 1.61602H181.968C183.073 1.61602 183.968 2.51145 183.968 3.61602V48C183.968 49.1046 183.073 50 181.968 50H178.672C177.567 50 176.672 49.1046 176.672 48V45.4735ZM158.496 34.64C158.496 35.8347 158.688 36.9867 159.072 38.096C159.499 39.2054 160.096 40.1867 160.864 41.04C161.675 41.8934 162.635 42.576 163.744 43.088C164.853 43.6 166.112 43.856 167.52 43.856C168.928 43.856 170.187 43.6 171.296 43.088C172.405 42.576 173.344 41.8934 174.112 41.04C174.923 40.1867 175.52 39.2054 175.904 38.096C176.331 36.9867 176.544 35.8347 176.544 34.64C176.544 33.4454 176.331 32.2934 175.904 31.184C175.52 30.0747 174.923 29.0934 174.112 28.24C173.344 27.3867 172.405 26.704 171.296 26.192C170.187 25.68 168.928 25.424 167.52 25.424C166.112 25.424 164.853 25.68 163.744 26.192C162.635 26.704 161.675 27.3867 160.864 28.24C160.096 29.0934 159.499 30.0747 159.072 31.184C158.688 32.2934 158.496 33.4454 158.496 34.64Z" fill="#E64203"/>
</svg>
